<?xml version="1.0" encoding="utf-8"?>
<!-- Generator: Adobe Illustrator 19.0.0, SVG Export Plug-In . SVG Version: 6.00 Build 0)  -->
<svg version="1.1" id="Calque_1" xmlns="http://www.w3.org/2000/svg" xmlns:xlink="http://www.w3.org/1999/xlink" x="0px" y="0px"
	 viewBox="0 0 370 370" style="enable-background:new 0 0 370 370;" xml:space="preserve">
<style type="text/css">
	.st0{fill:#D92727;}
</style>
<path id="XMLID_19_" class="st0" d="M362.2,157.4c-0.3-4.5,0.7-22.8-2.3-28.6c-3-5.8-3.7-19.5-13.7-33.5s-5-10.3-13-19.7
	c-8-9.3-12-17-15-21.3c-3-4.3-3-4.3-3-4.3s-4.3-9.7-7.7-13c-3.3-3.3-11.7-12-16.3-12.7c-4.7-0.7-18.3-5-24-7c-5.7-2-13.7-4.3-20.3-5
	c-6.7-0.7-28.7-6-35.3-5.7c-6.7,0.3-16.4-0.6-25,3.2s-15.8,3.4-19.7,5.5c-3.9,2.1-10,4.6-11.1,5s-10,1.8-11.6,2.8
	c-1.6,1.1-3.5,1.1-3.9,2.5c-0.4,1.4-5.7,6.3-6.8,8.4c-1.2,2.1-5.3,3.6-5.4,5.2c-0.1,1.6,0.7,2.5-1,3.5s-12.8,2-15,2.8
	s-13.4,4.3-15.9,6.6s-12.1,3.6-14.7,6.6c-2.6,3-12.9,9.3-15.7,14.8s-6.5,5.8-9.8,13s-7.3,13.8-10,19s-4.8,7.3-5.3,9s-1.8,5-4.5,7.3
	s-5,6-5,11.5s2,11,0,13.3s-7,15.3-7,20.3s0.8,12,0,14.5s-6.3,5.2-5,7c1.3,1.8,2.5,0,6.3-3.5s8.3-8.5,12.3-12.8s11.5-9.3,13-12.8
	s3.3-14.3,1-20.8s-2.8-8-9-6.5s-7,1.8-5.5-1.8s6.5-7.5,7.8-12.3s4.7-3.7,6.7-8.3c0,0,8-20,17.3-31.7c9.3-11.7,10-11.8,19.5-16.8
	s15.7-8.5,29.2-11.5s27.2-5.5,33-6.5c5.8-1,35.5-3.2,39.8-2.8c4.3,0.3,14.7,0.5,19.2,4.2c4.5,3.7,3.3,3,1.8,5.8
	c-1.5,2.8-3.8,8.3-6.7,8.7c-2.8,0.3-8,3.2-9.8,6c-1.8,2.8-8.7,11.2-9,12.5c-0.3,1.3-0.5,2.7-3.8,4.3c-3.3,1.7-7.2,1.2-8,4.8
	c-0.8,3.7-2,7.8-4,9c-2,1.2-2.8,1.3-3.3,4.3s-1,22.5,1.3,26.8c2.3,4.3,4.2,11.8,7,15.2c2.8,3.3,7.8,9,9.8,10.5s7,2.2,7.8,4.5
	c0.8,2.3,11,25.3,11,30.3s1.7,11.3,3.8,12.8c2.2,1.5,2.5,1.7,3.7,3.5c1.2,1.8,5,2.8,6,1.5c1-1.3,0.7-2.5,2.8-2.5
	c2.2,0,5.5,2.7,6.8-4.8s5-8.8,6.5-8.8s4.8,3,7.5,2.2c2.7-0.8,7.8-1.3,12-1.3s4.2,0,4.2,0s3.7-2.8,7-2.5c3.3,0.3,11.8,1.7,13,5.8
	c1.2,4.2,2.7,5.8,4.3,7.8s1.7,2,1.7,2s2.2,7,0,6.7c-2.2-0.3-2.5-6.3-4-8.8s-3,3-5.8,1.5c-2.8-1.5,0.7-3.8-2.5-5.3
	c-3.2-1.5-8.3-2.3-10.8-1c-2.5,1.3-5,1.7-9.5,1.5c-4.5-0.2-6,1-5.7,2.8c0.3,1.8,0,7.2-1.2,8.5c-1.2,1.3-1,3.3-3.2,2.8
	s-3.7-0.3-3.7,2.8c0,3.2,2.7,8.8,3.7,11.7c1,2.8,3,11.2,0.7,14.8c-2.3,3.7-9.7,8.3-9,10.8c0.7,2.5-0.3,4.2,5.3,4
	c5.7-0.2,10.3,0.5,11.5,1.3c1.2,0.8,2,1.5,1.8,4.2c-0.2,2.7,0.7,4.7,3,3.5c2.3-1.2,9.2-4,10.8-4.7c1.7-0.7,2.7-2,3.2-3.8
	c0.5-1.8,0.5-1.8,0.5-1.8s3.2-0.7,3.3-1.5c0.2-0.8,0.2-0.8,0.2-0.8s-0.3-6.3,0.5-8.7c0.8-2.3,3.3-6.2,3.5-8.8
	c0.2-2.7,0.8-4.2,3.8-4.3c3-0.2,4.1-0.5,4.5,2.3c0.4,2.8,1,7.2-1.3,10.5c-2.3,3.3-5.3,7.7-7.2,9.7c-1.8,2-3.2,3.3-3.5,5.5
	c-0.3,2.2-4.5,0.3-5.5,2.5c-1,2.2-5.5,7.2-8.5,7c-3-0.2-4.3,0.7-8.5,2.5c-4.2,1.8-14.5,6.7-15.8,9.2c-1.3,2.5-6.2,3.2-8.2,1.5
	c-2-1.7-3.7-7.2-7-5.5c-3.3,1.7-2.2,4.7-2,7.3c0.2,2.7,0.3,5.5,3,10.3c2.7,4.8,3.3,9.5,2.8,13.8c-0.5,4.3-0.5,5-6.2,6.5
	c-5.7,1.5-7.5,2-7.5,5s-3.5,4.8-7.2,5.3c-3.7,0.5-6.8-0.3-7.2,1.8c-0.3,2.2-0.3,2.2-0.3,2.2s-0.7,4-4.2,4.7c-3.5,0.7-13,0.5-13,4.2
	c0,3.7,0.8,7-2.8,7.7c-3.7,0.7-3,1.7-6.1,1.7c-3.1,0-3.3,0.8-5.9,1c-2.7,0.2-5.3,0-8.3,1.5s-6.7,6.2-8.3,2.3
	c-1.7-3.8-3.7-3.2-4.8-4.3c-1.2-1.2-0.5-3.5,3.8-5.8c4.3-2.3,17.3-9.5,19-11s8.7-8.7,9-10.2s-6.3-1.3-8.3-0.3s-6,4.2-8.7,3
	c-2.7-1.2-5.5-0.5-6.7,0.2c-1.2,0.7-1.5,1.5-4.8,1.5s-18.8-1.8-24.5-3.2c-5.7-1.3-6.5,0.5-10.7-3.2c-4.2-3.7-11-4.2-11-9
	c0-4.8-2-5.7-2.3-9.2s-3-19.7-2.8-25c0.2-5.3-4.3-6.8-4-8.5c0.3-1.7,0.3-1.7,0.3-1.7s0.8-1.2,4-2.3c3.2-1.2,4.3-1.2,4.5-4.2
	s-0.7-9.8-2.8-12c-2.2-2.2-2.3-7-3.5-9.3c-1.2-2.3-4.5-12.5-7.2-12.8c-2.7-0.3-4.2-2.8-4.2-9.8s-1.8-6.2-3.8-4.7s-5.3,2.8-7-0.5
	c-1.7-3.3-5-7.5-5.2-10c-0.2-2.5-4.7-4.4-4.7-2.2c0,2.2-0.2,6.5,1,8.9c1.2,2.3,2.5,3.3,3,5.7c0.5,2.3,1.3,5-0.2,7.8
	c-1.5,2.8-0.7,3.3-4.2,2.7c-3.5-0.7-9-1-12.7-0.3c-3.7,0.7-5.2-0.2-6.7-3.3c-1.5-3.2-3.7-3.5-6.8-3c-3.2,0.5-6.5,1.7-8.2,0.2
	s-6.3-4.2-9.2-4.2c-2.8,0-4.5-4.3-4.7-5.8c-0.2-1.5-3.3-1.5-2.7,2s1.2,14.7,3.3,16c2.2,1.3,3.8,0,5.2,3.5s0.8,5.5-1.5,5.2
	c-2.3-0.3-5.3-4.7-6.3-1.2s-1.3,7.2-0.8,14.7c0.6,7.5,4.9,30.5,5.3,35.8c0.3,5.3,0.5,10.8,2.2,15.2c1.7,4.3,2,7.8,1,12.5
	c-1,4.7-3.2,11.3-3,13.5c0.2,2.2-0.3,11.3,3.3,18c3.7,6.7,3,9,10.7,12.3c7.7,3.4,9.8,9.2,10.5,13.4c0.7,4.2,0.7,4.2,0.7,4.2h270
	c0,0-0.7-10.7-3.3-15.7c-2.7-5-0.7-18.3-3-26.3c-2.3-8-3.7-8.7-3.7-12c0-3.3,0-3.3,0-3.3s4.3-18.7,17-39c12.7-20.3,13-26.3,18.7-36
	c5.7-9.7,11.3-12,13.7-17.7c2.3-5.7,7.3-7.9,8-14.8c0.7-6.9,5.7-17.9,5.7-22.9S362.6,161.9,362.2,157.4z M37.2,152.4
	c0,0,2.2-0.5,3.8,0c1.7,0.6,3.9,3.1,0,4.5c-3.1,1.1-4.8,1.8-6-0.5C34.2,155,35.4,153,37.2,152.4z M179.6,114.7
	c-1.6-2.9-3.8-5.1-3.2-6.8c0.6-1.7,2.4-3.5,3.9-1.5c0,0,2.7,2.7,2.8,5.3C183.1,114.4,181.2,117.6,179.6,114.7z M183.6,91.5
	c-0.4,0.5-1.4,1.7-2,0.7c-0.7-0.9-0.9-1.5-0.5-1.9c0,0,0.7-1.1,1.5-0.8C183.4,89.9,184,91,183.6,91.5z M200.6,88.6
	c-3.9,0.4-3.7,0-4.7-0.8s-3.3-1.6-3.1,0.9c0.1,2.5-0.4,6.7-1.3,7.3c-0.8,0.6-2.8,3.2-3.3,0s-1.6-5.7-0.9-6.7s1.4-1.7,2.1-2.6
	c0,0,4.1-4.7,4.1-5.7s0.9-1,1.6,0c0.7,1,1.4,2.1,3.1,2.1s4.2-1.3,5.3,2.3S204.5,88.3,200.6,88.6z M266.2,246
	c-2.1,2.9-7.5,10.3-11.1,6.6s-2.1-8.3,0-9s6.4-1,5.9-2.9c-0.4-1.9,0.3-8.3-4.8-13.1c-5.1-4.9-10-8.9-9.2-11.5c0.7-2.6,3.1-3,5.5-2.5
	c2.4,0.5,2.4,1.6,3.7,2.5c0,0,1.1,1.5,4.8,1.5c3.6,0,6.1,0,6.5,4.6c0.4,4.6,1.2,10,1.6,12.4S268.3,243.1,266.2,246z M24.2,337.8
	c-1,0.5-3-0.5-3.4-2.8s0.8-4.6,2.2-3.9c1.4,0.7,2.3,1.5,2.2,3.1C25.2,334.5,25.2,337.3,24.2,337.8z M21.7,256.7
	c-1.3-1.2-3-3.2,3.2-4.8c6.2-1.7,5.7-1.2,6.3-4c0.7-2.8,0.2-8.7,10.7-11c10.5-2.3,9.6-1.7,13.3-5.7c0,0,4.5-6.8,7.3-4.2
	c2.8,2.7,0.3,4.3,3.8,10.8s11.5,20.2,5.8,21.8c-5.7,1.7-4.3,2.8-10.2,1.2c-5.8-1.7-1.5,1.7-5.5,3c-4,1.3-10.3,0-13.3-2.3
	c-3-2.3-10.8-5.7-13.5-2.2C27.1,262.8,23.1,257.8,21.7,256.7z M84.3,324.6c-6.5,5.3-12.5,6.5-14.3,8.8s-7.5,3.5-14,5s-11.3,2-14.8,0
	s-3.8-6.5-9.8-11s-2.8-11.8,0-13.3s4.3-2.8,2.3-3.8s-5.8-3.3-4.5-6.3s6.5-1.5,10.3-2.8s13.3-5,13-7s0.3-4.5-7.5-5.3s-9.8-2.3-10.5-6
	s-8-2.8-6.4-5.3s1.4-5.6,5.9-5.5c0,0,11.3,0,13.3,1c2,1,13.2-0.8,16,0s12.8,3.8,13,11.5s3,21.8,4.5,24.5S90.8,319.3,84.3,324.6z
	 M275.8,319.6c-0.8,11-6.8,9.5-13.5,11.5c-6.8,2-26.3,6.3-31.8,6.9c-5.5,0.6-7,1.9-8.5,3.1s-11,5.8-11,0s4.3-7.3,7.8-10
	c3.5-2.7,4-9.7,6-9.7s4-0.5,5.5,1.3s3.3,3.8,4.8,3s9-4.5,11.8-6.5s6-9.8,8.8-14.3c0,0,7.3-12.5,10-13.5s6.8-1.3,7,6.8
	S276.6,308.6,275.8,319.6z"/>
<path id="XMLID_1_" class="st0" d="M94.8,129.1c0,0-1,0.8-4,1.4s-8.1,2.6-9,6.3s-0.9,6,4.1,4.6s7.5,0.6,10,1.9s21.1,10.6,24.5,10.8
	s7.9,2.6,12.4,1s5,2.1,2.9,3.4s-8.9,6.1-13.4,6.3s-7.8,0.8-9.5-0.9s-3.8-3.5-11.1-4.4s-11.9-1.6-15.1,0.4s-6.1,1.9-5.2,4.3
	c0.9,2.4,1.6,6.3,8.8,5.9s11.9,0,14,1.6s1.5,2.9-0.4,3.8s-8.6,3-9,4.5s-3.8,6-7.5,6s-12.4-1.3-14.5-8s-3.9-7.6-3.5-13.9
	s1.8-5.5-3.6-8.6s-3.4-4.6-3.3-8.9s0.1-5.5-1.9-8.1s-3.3-6-0.9-8.3s7.9-3.5,9.1-5.4s3.4-3.6,6.1-3.8s10.5,1.3,9.5-1.8
	s-4.6-5.5-1.6-6.5s7.4-0.4,10.6,3.5s5.8,1.1,10,2.1s5.3,2,5.6,3.5s3.4,0.6,4.8,1.6s4.5,7,2,6.5s-7.1-4-12.8-2.8S97.5,128,94.8,129.1
	z"/>
<path id="XMLID_4_" class="st0" d="M111.7,115.4c1.2,1.3,1.5,2.9-0.2,2.8c-1.7,0-2.5-1-2.1-2C109.8,115.3,110.9,114.5,111.7,115.4z"
	/>
<path id="XMLID_5_" class="st0" d="M38.6,195.8c0,0,0-0.8,1.8-0.8c1.8,0,3.9,0.1,3.9,1.5s-0.8,1.5-2.3,2c-1.5,0.5-2.9,0.5-3.1-0.4
	C38.7,197.2,38.4,196.3,38.6,195.8z"/>
<path id="XMLID_3_" class="st0" d="M13.4,194.5c0,0,2.8-2.9,3.5-3.2c0.7-0.3,2.1-1.6,1.6,0c-0.5,1.6-5.6,8.4-5.8,6.5
	C12.7,196,12.5,195.5,13.4,194.5z"/>
<path id="XMLID_6_" class="st0" d="M227.4,242.8c0,0-0.1-2.5,1.3-3.3s3.6-3.2,3.9-1.4s-1.1,7.1-3.5,7
	C227.7,245.1,227.2,244.4,227.4,242.8z"/>
<path id="XMLID_7_" class="st0" d="M223.2,251.9c-0.3,1.6-2,2-1.8,0.4C221.6,250.6,223.4,251.1,223.2,251.9z"/>
<path id="XMLID_8_" class="st0" d="M217.7,260.6c0,0,0.7-0.9,1.4-0.7s2.2,0.9,1.1,2.1s-2.8,2.3-3.3,0.8
	C216.7,261.7,217.1,261.2,217.7,260.6z"/>
</svg>
